<?xml version="1.0" standalone="no"?>
<!DOCTYPE svg PUBLIC "-//W3C//DTD SVG 20010904//EN"
 "http://www.w3.org/TR/2001/REC-SVG-20010904/DTD/svg10.dtd">
<svg version="1.0" xmlns="http://www.w3.org/2000/svg"
 width="95.000000pt" height="95.000000pt" viewBox="0 0 95.000000 95.000000"
 preserveAspectRatio="xMidYMid meet">
<metadata>
Created by potrace 1.11, written by Peter Selinger 2001-2013
</metadata>
<g transform="translate(0.000000,95.000000) scale(0.100000,-0.100000)"
fill="#000000" stroke="none">
<path d="M365 935 c-5 -9 -17 -17 -26 -18 -9 -2 -24 -11 -33 -20 -10 -9 -22
-15 -27 -12 -26 16 -3 -20 45 -72 29 -32 57 -69 61 -83 6 -20 -2 -15 -39 25
-34 35 -41 40 -26 18 12 -18 17 -33 11 -33 -16 0 8 -38 45 -72 17 -15 37 -41
44 -58 8 -19 22 -33 39 -37 29 -7 51 -21 51 -34 0 -16 -27 -9 -45 11 -10 11
-25 20 -34 20 -14 -1 -13 -2 2 -11 9 -5 17 -14 17 -20 0 -6 -6 -7 -16 -1 -15
9 -96 -7 -110 -21 -4 -4 -14 -7 -23 -7 -12 0 -12 3 -3 12 22 22 12 52 -23 74
l-33 22 -6 -24 c-6 -24 -26 -34 -26 -13 0 8 17 47 25 57 1 1 37 -16 80 -39 43
-24 76 -38 73 -33 -2 5 -12 26 -22 46 -19 43 -70 77 -79 54 -4 -10 0 -12 14
-9 25 7 25 -13 -1 -27 -14 -7 -20 -7 -20 0 0 5 -6 10 -14 10 -27 0 -25 16 4
47 l29 31 -29 12 c-17 7 -30 18 -30 25 0 7 -12 21 -27 31 -22 14 -25 14 -15 2
9 -11 10 -18 2 -23 -5 -3 -10 -1 -10 5 0 6 -4 9 -9 6 -5 -4 -12 0 -14 6 -4 9
-6 9 -6 1 -1 -6 6 -18 14 -27 9 -9 15 -33 15 -61 0 -42 -2 -47 -20 -42 -15 4
-20 0 -20 -15 0 -14 -5 -18 -16 -14 -8 3 -12 2 -9 -4 3 -6 13 -10 21 -10 8 0
29 -16 46 -36 17 -19 43 -41 59 -49 17 -9 30 -26 34 -46 10 -43 1 -46 -35 -10
-36 36 -58 41 -36 9 23 -32 21 -51 -4 -43 -20 6 -28 -9 -10 -20 13 -8 13 -45
1 -45 -5 0 -12 6 -15 13 -4 6 -4 2 -2 -10 4 -24 -20 -51 -69 -76 -30 -15 -30
-15 -72 26 l-43 41 0 -100 0 -101 58 -18 c31 -10 69 -24 85 -32 18 -9 51 -13
95 -12 85 4 99 -4 66 -36 -13 -13 -24 -29 -24 -35 0 -5 -11 -10 -25 -10 -14 0
-25 -4 -25 -10 0 -6 38 -10 95 -10 83 0 96 2 105 19 10 20 66 37 220 68 41 9
86 20 100 26 l25 11 -25 3 c-62 9 -68 12 -63 35 5 22 5 22 -9 4 -15 -19 -16
-19 -31 5 -17 25 -17 27 13 157 6 23 10 51 10 61 0 10 6 24 14 30 12 10 17 8
26 -8 12 -24 30 -28 30 -7 0 9 10 13 29 12 17 -1 27 2 25 6 -8 13 16 38 36 38
10 0 21 -6 23 -12 4 -10 6 -10 6 0 1 6 12 12 25 12 14 0 27 4 31 10 3 5 12 7
20 3 13 -4 15 28 15 236 l0 241 -250 0 -250 -1 -1 -47 c-1 -58 -14 -104 -22
-82 -3 8 -7 40 -9 70 -3 46 -6 55 -23 58 -11 1 -24 -5 -30 -13z m175 -15 c0
-5 -2 -10 -4 -10 -3 0 -8 5 -11 10 -3 6 -1 10 4 10 6 0 11 -4 11 -10z m-53
-32 c-3 -8 -6 -5 -6 6 -1 11 2 17 5 13 3 -3 4 -12 1 -19z m108 -18 c3 -5 -1
-10 -10 -10 -9 0 -13 5 -10 10 3 6 8 10 10 10 2 0 7 -4 10 -10z m240 -67 c-2
-10 -4 -21 -4 -25 -1 -5 -6 -8 -12 -8 -8 0 -7 6 2 17 8 10 -14 -6 -48 -36 -34
-29 -64 -58 -67 -65 -3 -7 -5 -6 -5 2 -1 14 116 132 130 132 4 0 6 -8 4 -17z
m-25 -67 c0 -2 -7 -7 -16 -10 -8 -3 -12 -2 -9 4 6 10 25 14 25 6z m-390 -90
c0 -18 -17 8 -24 34 l-7 25 15 -25 c9 -14 15 -29 16 -34z m81 -32 c6 -8 7 -14
2 -14 -18 0 -33 25 -32 55 l1 30 8 -28 c5 -16 14 -35 21 -43z m155 22 c-3 -14
-15 -30 -26 -36 -26 -14 -26 2 0 25 11 10 20 25 20 33 0 9 3 13 6 9 4 -3 4
-17 0 -31z m-200 -23 c-7 -7 -26 7 -26 19 0 6 6 6 15 -2 9 -7 13 -15 11 -17z
m134 -25 c0 -6 -6 -5 -15 2 -8 7 -15 14 -15 16 0 2 7 1 15 -2 8 -4 15 -11 15
-16z m-46 6 c20 -8 21 -34 2 -34 -7 0 -16 9 -19 20 -6 22 -5 23 17 14z m-287
-39 c-16 -17 -20 -11 -12 16 5 16 9 18 15 9 4 -7 3 -19 -3 -25z m323 -37 c0
-16 -20 -7 -30 12 -10 19 -10 20 9 8 12 -7 21 -16 21 -20z m-105 -39 c49 -26
48 -25 41 -37 -4 -6 -29 -2 -63 10 -68 24 -67 24 -58 37 10 17 36 13 80 -10z
m-71 -25 c25 -10 19 -34 -9 -34 -24 0 -34 18 -18 33 8 8 8 8 27 1z m201 -14
c-3 -5 -11 -10 -16 -10 -6 0 -7 5 -4 10 3 6 11 10 16 10 6 0 7 -4 4 -10z m-50
-72 c6 -23 2 -29 -24 -42 -21 -12 -28 -21 -24 -33 5 -13 1 -15 -20 -11 -16 3
-31 0 -38 -8 -6 -8 -15 -14 -20 -14 -15 0 -59 74 -59 99 0 23 2 24 65 19 54
-5 67 -3 81 13 20 22 30 16 39 -23z m-249 -26 c5 -25 3 -32 -10 -32 -12 0 -16
10 -16 42 0 48 16 42 26 -10z m304 3 c0 -8 -4 -15 -10 -15 -5 0 -10 7 -10 15
0 8 5 15 10 15 6 0 10 -7 10 -15z m-436 -46 c-9 -10 -24 -19 -33 -19 -12 0 -9
6 9 24 29 27 50 23 24 -5z m156 -61 c0 -6 -7 -5 -15 2 -8 7 -15 17 -15 22 0 6
7 5 15 -2 8 -7 15 -17 15 -22z m173 -9 c-24 -7 -31 -14 -26 -26 4 -10 2 -14
-7 -11 -36 12 -2 47 45 46 12 0 7 -4 -12 -9z m-91 -156 c13 -7 -47 -63 -68
-63 -17 0 -20 5 -16 25 8 42 44 59 84 38z"/>
<path d="M141 684 c0 -11 3 -14 6 -6 3 7 2 16 -1 19 -3 4 -6 -2 -5 -13z"/>
<path d="M816 433 c-6 -14 -5 -15 5 -6 7 7 10 15 7 18 -3 3 -9 -2 -12 -12z"/>
<path d="M935 201 c-3 -5 -1 -12 5 -16 5 -3 10 1 10 9 0 18 -6 21 -15 7z"/>
<path d="M900 169 c1 -19 25 -49 39 -49 19 0 8 31 -16 48 -19 12 -23 12 -23 1z"/>
<path d="M880 98 c-14 -5 -51 -10 -82 -11 -56 -2 -58 -3 -58 -30 0 -16 4 -26
9 -22 6 3 15 -4 21 -15 9 -17 21 -20 85 -20 46 0 75 4 75 11 0 5 5 7 10 4 6
-3 10 4 9 17 -1 24 -16 79 -18 64 -1 -5 -7 -4 -13 2 -9 6 -22 6 -38 0z"/>
<path d="M0 40 l0 -40 110 0 c107 0 110 1 110 23 0 21 -4 22 -82 25 -61 2 -85
6 -91 17 -4 8 -17 15 -27 15 -17 0 -20 -7 -20 -40z"/>
<path d="M707 20 c3 -11 14 -20 25 -20 22 0 16 15 -12 30 -15 8 -17 7 -13 -10z"/>
<path d="M650 15 c0 -8 7 -15 15 -15 9 0 12 6 9 15 -8 19 -24 19 -24 0z"/>
</g>
</svg>
